<svg width="23" height="25" viewBox="0 0 23 25" fill="none" xmlns="http://www.w3.org/2000/svg">
<path d="M20.7454 0.112946L20.7379 0.116099L1.14093 8.87074C0.975656 8.9439 0.829751 9.06016 0.716266 9.20911C0.60278 9.35807 0.525253 9.53508 0.490619 9.7243C0.452396 9.92246 0.460391 10.1278 0.513886 10.3218C0.567382 10.5158 0.664698 10.6923 0.797081 10.8356L4.47132 14.8034C4.65256 14.999 4.89131 15.1202 5.14643 15.1461C5.40154 15.1719 5.65703 15.1009 5.86886 14.9452L14.8206 8.29518C14.8559 8.2692 14.8985 8.25734 14.9411 8.26166C14.9836 8.26597 15.0234 8.28619 15.0536 8.31882C15.0838 8.35144 15.1026 8.39444 15.1066 8.44038C15.1106 8.48632 15.0996 8.53233 15.0755 8.57046L8.9178 18.237C8.77358 18.4656 8.70769 18.7414 8.73148 19.0168C8.75527 19.2922 8.86725 19.5501 9.04814 19.7459L12.723 23.7144C12.8495 23.8511 13.0054 23.9518 13.1768 24.0075C13.3482 24.0631 13.5298 24.0719 13.7051 24.0331C13.9166 23.987 14.1109 23.8747 14.2636 23.7101C14.3696 23.5955 14.4533 23.4591 14.5098 23.3091L22.6492 2.18212L22.6524 2.17231C22.7587 1.88444 22.7846 1.56922 22.7267 1.26565C22.6689 0.96209 22.5299 0.683503 22.327 0.464358C22.1241 0.245215 21.8661 0.0951296 21.585 0.0326703C21.3039 -0.0297868 21.012 -0.00187776 20.7454 0.112946Z" fill="#007C9E"/>
</svg>
