<svg width="24" height="25" viewBox="0 0 24 25" fill="none" xmlns="http://www.w3.org/2000/svg">
<path d="M16.8725 8.4587C16.7684 8.18953 16.6089 7.94512 16.4044 7.7412C16.1999 7.53727 15.9548 7.37837 15.685 7.27473C15.3135 7.1374 14.9211 7.06481 14.525 7.06014C13.8663 7.0302 13.6688 7.02271 12 7.02271C10.3313 7.02271 10.1338 7.0302 9.475 7.06014C9.07845 7.06467 8.68564 7.13726 8.31375 7.27473C8.04407 7.37866 7.79918 7.53782 7.59487 7.74195C7.39055 7.94609 7.23135 8.19067 7.1275 8.45995C6.98991 8.83074 6.91719 9.22236 6.9125 9.61773C6.8825 10.2752 6.875 10.4723 6.875 12.1379C6.875 13.8034 6.8825 14.0006 6.9125 14.6581C6.91704 15.0538 6.98977 15.4459 7.1275 15.8171C7.23163 16.0862 7.3911 16.3307 7.59562 16.5346C7.80015 16.7385 8.04521 16.8974 8.315 17.0011C8.6865 17.1384 9.07887 17.211 9.475 17.2156C10.1338 17.2456 10.3313 17.2518 12 17.2518C13.6688 17.2518 13.8663 17.2456 14.525 17.2144C14.9215 17.2103 15.3143 17.1381 15.6863 17.0011C15.9559 16.8971 16.2008 16.738 16.4051 16.5338C16.6095 16.3297 16.7687 16.0851 16.8725 15.8158C17.0101 15.445 17.0828 15.0534 17.0875 14.6581C17.1175 14.0006 17.1238 13.8034 17.1238 12.1379C17.1238 10.4723 17.1175 10.2752 17.0863 9.61773C17.0821 9.22201 17.0098 8.82996 16.8725 8.4587ZM12 15.3417C11.3651 15.3417 10.7445 15.1538 10.2166 14.8018C9.68874 14.4497 9.27731 13.9494 9.03435 13.364C8.79139 12.7785 8.72782 12.1343 8.85168 11.5129C8.97554 10.8914 9.28126 10.3205 9.73019 9.87243C10.1791 9.42436 10.7511 9.11922 11.3738 8.9956C11.9964 8.87198 12.6419 8.93543 13.2284 9.17792C13.815 9.42041 14.3163 9.83106 14.669 10.3579C15.0217 10.8848 15.21 11.5042 15.21 12.1379C15.21 12.9876 14.8718 13.8025 14.2698 14.4034C13.6678 15.0042 12.8513 15.3417 12 15.3417ZM15.3363 9.5566C15.1879 9.5566 15.0429 9.51269 14.9196 9.43044C14.7962 9.34819 14.7001 9.23128 14.6433 9.0945C14.5866 8.95772 14.5717 8.8072 14.6007 8.662C14.6296 8.51679 14.701 8.38341 14.8059 8.27872C14.9108 8.17403 15.0444 8.10274 15.1899 8.07386C15.3354 8.04497 15.4862 8.0598 15.6233 8.11645C15.7603 8.17311 15.8774 8.26905 15.9599 8.39216C16.0423 8.51526 16.0863 8.65998 16.0863 8.80803C16.0863 9.00657 16.0072 9.19697 15.8666 9.33735C15.7259 9.47773 15.5352 9.5566 15.3363 9.5566ZM14.0838 12.1379C14.0838 12.5492 13.9615 12.9513 13.7326 13.2933C13.5036 13.6354 13.1782 13.9019 12.7974 14.0593C12.4167 14.2167 11.9977 14.2579 11.5935 14.1777C11.1893 14.0974 10.818 13.8994 10.5266 13.6085C10.2352 13.3176 10.0367 12.9471 9.95629 12.5436C9.87589 12.1402 9.91716 11.722 10.0749 11.342C10.2326 10.962 10.4997 10.6372 10.8423 10.4086C11.185 10.1801 11.5879 10.0581 12 10.0581C12.5526 10.0581 13.0827 10.2773 13.4734 10.6673C13.8642 11.0573 14.0838 11.5863 14.0838 12.1379ZM12 0.160889C9.62663 0.160889 7.30655 0.863328 5.33316 2.17938C3.35977 3.49543 1.8217 5.36598 0.913451 7.55449C0.00519939 9.743 -0.232441 12.1512 0.230582 14.4745C0.693605 16.7978 1.83649 18.9319 3.51472 20.6069C5.19295 22.2819 7.33115 23.4226 9.65892 23.8848C11.9867 24.3469 14.3995 24.1097 16.5922 23.2032C18.7849 22.2967 20.6591 20.7616 21.9776 18.792C23.2962 16.8223 24 14.5067 24 12.1379C24 8.96139 22.7357 5.915 20.4853 3.66887C18.2348 1.42275 15.1826 0.160889 12 0.160889V0.160889ZM18.2125 14.7092C18.2019 15.2269 18.1034 15.739 17.9213 16.2238C17.7607 16.6381 17.5152 17.0144 17.2005 17.3285C16.8858 17.6426 16.5089 17.8876 16.0938 18.0478C15.6084 18.2295 15.0957 18.3278 14.5775 18.3385C13.91 18.3684 13.6975 18.3759 12 18.3759C10.3025 18.3759 10.09 18.3684 9.4225 18.3385C8.90426 18.3278 8.39159 18.2295 7.90625 18.0478C7.49116 17.8876 7.11417 17.6426 6.79947 17.3285C6.48477 17.0144 6.23928 16.6381 6.07875 16.2238C5.89671 15.7394 5.79823 15.2277 5.7875 14.7105C5.7575 14.0442 5.75 13.8321 5.75 12.1379C5.75 10.4436 5.7575 10.2316 5.7875 9.56533C5.79783 9.04815 5.89588 8.53646 6.0775 8.05199C6.23803 7.63733 6.48364 7.26076 6.79857 6.94642C7.1135 6.63209 7.4908 6.38696 7.90625 6.22674C8.39166 6.04547 8.90433 5.9476 9.4225 5.9373C10.09 5.90735 10.3025 5.89987 12 5.89987C13.6975 5.89987 13.91 5.90735 14.5775 5.9373C15.0957 5.9476 15.6083 6.04547 16.0938 6.22674C16.509 6.3871 16.886 6.63231 17.2007 6.94663C17.5155 7.26095 17.7609 7.63745 17.9213 8.05199C18.1033 8.53639 18.2018 9.04808 18.2125 9.56533C18.2425 10.2316 18.25 10.4436 18.25 12.1379C18.25 13.8321 18.2425 14.0442 18.2125 14.7105V14.7092Z" fill="#EFF7F9"/>
</svg>
