<svg width="24" height="25" viewBox="0 0 24 25" fill="none" xmlns="http://www.w3.org/2000/svg">
<path d="M12 0.160889C5.3725 0.160889 0 5.52309 0 12.1379C0 18.7527 5.3725 24.1149 12 24.1149C18.6275 24.1149 24 18.7527 24 12.1379C24 5.52309 18.6275 0.160889 12 0.160889ZM9.0625 17.1021H6.6325V9.2971H9.0625V17.1021ZM7.8325 8.33894C7.065 8.33894 6.56875 7.79623 6.56875 7.12502C6.56875 6.44008 7.08 5.91359 7.86375 5.91359C8.6475 5.91359 9.1275 6.44008 9.1425 7.12502C9.1425 7.79623 8.6475 8.33894 7.8325 8.33894ZM17.9375 17.1021H15.5075V12.7767C15.5075 11.7699 15.155 11.0862 14.2763 11.0862C13.605 11.0862 13.2063 11.549 13.03 11.9944C12.965 12.1529 12.9488 12.3774 12.9488 12.6008V17.1009H10.5175V11.7861C10.5175 10.8117 10.4862 9.997 10.4537 9.29585H12.565L12.6763 10.38H12.725C13.045 9.871 13.8288 9.11994 15.14 9.11994C16.7388 9.11994 17.9375 10.1891 17.9375 12.4872V17.1021Z" fill="#EFF7F9"/>
</svg>
